<?xml version="1.0" encoding="UTF-8"?>
<svg xmlns="http://www.w3.org/2000/svg"
     xmlns:xlink="http://www.w3.org/1999/xlink"
     xmlns:gadfly="http://www.gadflyjl.org/ns"
     version="1.2"
     width="300mm" height="180mm" viewBox="0 0 300 180"
     stroke="none"
     fill="#000000"
     stroke-width="0.3"
     font-size="3.88"
>
<g class="plotroot xscalable yscalable" id="img-45ae1100-1">
  <g font-size="3.88" font-family="'PT Sans','Helvetica Neue','Helvetica',sans-serif" fill="#564A55" stroke="#000000" stroke-opacity="0.000" id="img-45ae1100-2">
    <text x="146.27" y="168.39" text-anchor="middle" dy="0.6em">glossy <tspan style="dominant-baseline:inherit" font-style="italic"><tspan style="dominant-baseline:inherit" font-weight="bold">by</tspan></tspan> orientation</text>
  </g>
  <g class="guide colorkey" id="img-45ae1100-3">
    <g font-size="2.82" font-family="'PT Sans','Helvetica Neue','Helvetica',sans-serif" fill="#4C404B" id="img-45ae1100-4">
      <text x="291.86" y="92.81" dy="0.35em">2</text>
      <text x="291.86" y="106.46" dy="0.35em">0</text>
      <text x="291.86" y="79.15" dy="0.35em">4</text>
      <text x="291.86" y="85.98" dy="0.35em">3</text>
      <text x="291.86" y="99.63" dy="0.35em">1</text>
    </g>
    <g shape-rendering="crispEdges" stroke="#000000" stroke-opacity="0.000" id="img-45ae1100-5">
      <rect x="289.55" y="105.78" width="1.31" height="0.68" fill="#004D84"/>
      <rect x="289.55" y="105.1" width="1.31" height="0.68" fill="#005B8D"/>
      <rect x="289.55" y="104.41" width="1.31" height="0.68" fill="#006995"/>
      <rect x="289.55" y="103.73" width="1.31" height="0.68" fill="#00769D"/>
      <rect x="289.55" y="103.05" width="1.31" height="0.68" fill="#0083A3"/>
      <rect x="289.55" y="102.36" width="1.31" height="0.68" fill="#278FA9"/>
      <rect x="289.55" y="101.68" width="1.31" height="0.68" fill="#409BAF"/>
      <rect x="289.55" y="101" width="1.31" height="0.68" fill="#55A7B5"/>
      <rect x="289.55" y="100.32" width="1.31" height="0.68" fill="#69B2BA"/>
      <rect x="289.55" y="99.63" width="1.31" height="0.68" fill="#7BBCC0"/>
      <rect x="289.55" y="98.95" width="1.31" height="0.68" fill="#8DC6C5"/>
      <rect x="289.55" y="98.27" width="1.31" height="0.68" fill="#9ED0CB"/>
      <rect x="289.55" y="97.59" width="1.31" height="0.68" fill="#A5CFC7"/>
      <rect x="289.55" y="96.9" width="1.31" height="0.68" fill="#ABCEC4"/>
      <rect x="289.55" y="96.22" width="1.31" height="0.68" fill="#B1CCC2"/>
      <rect x="289.55" y="95.54" width="1.31" height="0.68" fill="#B5CCC1"/>
      <rect x="289.55" y="94.85" width="1.31" height="0.68" fill="#B7CBBF"/>
      <rect x="289.55" y="94.17" width="1.31" height="0.68" fill="#B9CBBD"/>
      <rect x="289.55" y="93.49" width="1.31" height="0.68" fill="#BBCBBB"/>
      <rect x="289.55" y="92.81" width="1.31" height="0.68" fill="#BDCABA"/>
      <rect x="289.55" y="92.12" width="1.31" height="0.68" fill="#BFCAB8"/>
      <rect x="289.55" y="91.44" width="1.31" height="0.68" fill="#C2C9B7"/>
      <rect x="289.55" y="90.76" width="1.31" height="0.68" fill="#C4C9B6"/>
      <rect x="289.55" y="90.07" width="1.31" height="0.68" fill="#C6C8B5"/>
      <rect x="289.55" y="89.39" width="1.31" height="0.68" fill="#C9C7B4"/>
      <rect x="289.55" y="88.71" width="1.31" height="0.68" fill="#CCC7B2"/>
      <rect x="289.55" y="88.03" width="1.31" height="0.68" fill="#CFC6AE"/>
      <rect x="289.55" y="87.34" width="1.31" height="0.68" fill="#D4C5AA"/>
      <rect x="289.55" y="86.66" width="1.31" height="0.68" fill="#D8C3A6"/>
      <rect x="289.55" y="85.98" width="1.31" height="0.68" fill="#D3B79A"/>
      <rect x="289.55" y="85.3" width="1.31" height="0.68" fill="#CDAB8E"/>
      <rect x="289.55" y="84.61" width="1.31" height="0.68" fill="#C89E82"/>
      <rect x="289.55" y="83.93" width="1.31" height="0.68" fill="#C19177"/>
      <rect x="289.55" y="83.25" width="1.31" height="0.68" fill="#BA836C"/>
      <rect x="289.55" y="82.56" width="1.31" height="0.68" fill="#B27563"/>
      <rect x="289.55" y="81.88" width="1.31" height="0.68" fill="#AA665A"/>
      <rect x="289.55" y="81.2" width="1.31" height="0.68" fill="#A05752"/>
      <rect x="289.55" y="80.52" width="1.31" height="0.68" fill="#96484A"/>
      <rect x="289.55" y="79.83" width="1.31" height="0.68" fill="#8B3844"/>
      <rect x="289.55" y="79.15" width="1.31" height="0.68" fill="#7E273E"/>
      <g stroke="#FFFFFF" stroke-width="0.2" id="img-45ae1100-6">
        <path fill="none" d="M289.55,92.81 L 290.86 92.81"/>
        <path fill="none" d="M289.55,106.46 L 290.86 106.46"/>
        <path fill="none" d="M289.55,79.15 L 290.86 79.15"/>
        <path fill="none" d="M289.55,85.98 L 290.86 85.98"/>
        <path fill="none" d="M289.55,99.63 L 290.86 99.63"/>
      </g>
    </g>
    <g fill="#362A35" font-size="3.88" font-family="'PT Sans','Helvetica Neue','Helvetica',sans-serif" stroke="#000000" stroke-opacity="0.000" id="img-45ae1100-7">
      <text x="289.55" y="75.15">days</text>
    </g>
  </g>
<g clip-path="url(#img-45ae1100-8)">
  <g id="img-45ae1100-9">
    <g class="plotpanel" id="img-45ae1100-10">
      <g font-size="3.88" font-family="'PT Sans','Helvetica Neue','Helvetica',sans-serif" fill="#564A55" stroke="#000000" stroke-opacity="0.000" id="img-45ae1100-11">
        <text x="218.42" y="158.78" text-anchor="middle" dy="0.6em">perpendicular</text>
      </g>
      <g font-size="3.88" font-family="'PT Sans','Helvetica Neue','Helvetica',sans-serif" fill="#564A55" stroke="#000000" stroke-opacity="0.000" id="img-45ae1100-12">
        <text x="79.15" y="158.78" text-anchor="middle" dy="0.6em">parallel</text>
      </g>
      <g class="guide xlabels" font-size="2.82" font-family="'PT Sans Caption','Helvetica Neue','Helvetica',sans-serif" fill="#6C606B" id="img-45ae1100-13">
        <text x="153.28" y="152.1" text-anchor="middle" dy="0.6em">0</text>
        <text x="179.34" y="152.1" text-anchor="middle" dy="0.6em">2</text>
        <text x="205.39" y="152.1" text-anchor="middle" dy="0.6em">4</text>
        <text x="231.44" y="152.1" text-anchor="middle" dy="0.6em">6</text>
        <text x="257.49" y="152.1" text-anchor="middle" dy="0.6em">8</text>
        <text x="283.55" y="152.1" text-anchor="middle" dy="0.6em">10</text>
      </g>
      <g class="guide xlabels" font-size="2.82" font-family="'PT Sans Caption','Helvetica Neue','Helvetica',sans-serif" fill="#6C606B" id="img-45ae1100-14">
        <text x="13.02" y="152.1" text-anchor="middle" dy="0.6em">0</text>
        <text x="39.47" y="152.1" text-anchor="middle" dy="0.6em">2</text>
        <text x="65.93" y="152.1" text-anchor="middle" dy="0.6em">4</text>
        <text x="92.38" y="152.1" text-anchor="middle" dy="0.6em">6</text>
        <text x="118.83" y="152.1" text-anchor="middle" dy="0.6em">8</text>
        <text x="145.28" y="152.1" text-anchor="middle" dy="0.6em">10</text>
      </g>
<g clip-path="url(#img-45ae1100-15)">
      <g id="img-45ae1100-16">
        <g pointer-events="visible" opacity="1" fill="#000000" fill-opacity="0.000" stroke="#000000" stroke-opacity="0.000" class="guide background" id="img-45ae1100-17">
          <rect x="151.28" y="7" width="134.26" height="144.1"/>
        </g>
        <g class="guide ygridlines xfixed" stroke-dasharray="0.5,0.5" stroke-width="0.2" stroke="#D0D0E0" id="img-45ae1100-18">
          <path fill="none" d="M151.28,149.1 L 285.55 149.1"/>
          <path fill="none" d="M151.28,102.4 L 285.55 102.4"/>
          <path fill="none" d="M151.28,55.7 L 285.55 55.7"/>
          <path fill="none" d="M151.28,9 L 285.55 9"/>
        </g>
        <g class="guide xgridlines yfixed" stroke-dasharray="0.5,0.5" stroke-width="0.2" stroke="#D0D0E0" id="img-45ae1100-19">
          <path fill="none" d="M153.28,7 L 153.28 151.1"/>
          <path fill="none" d="M179.34,7 L 179.34 151.1"/>
          <path fill="none" d="M205.39,7 L 205.39 151.1"/>
          <path fill="none" d="M231.44,7 L 231.44 151.1"/>
          <path fill="none" d="M257.49,7 L 257.49 151.1"/>
          <path fill="none" d="M283.55,7 L 283.55 151.1"/>
        </g>
        <g class="plotpanel" id="img-45ae1100-20">
          <g stroke-width="0.3" fill="#000000" fill-opacity="0.000" stroke-dasharray="none" id="img-45ae1100-21">
            <path fill="none" d="M162.35,149.1 L 162.58 149.1 162.81 149.1 163.04 149.1 163.26 149.1 163.49 149.1 163.72 149.1 163.94 149.1 164.17 149.1 164.4 149.09 164.62 149.09 164.85 149.09 165.08 149.09 165.3 149.08 165.53 149.08 165.76 149.07 165.98 149.07 166.21 149.06 166.44 149.05 166.67 149.04 166.89 149.02 167.12 149 167.35 148.98 167.57 148.96 167.8 148.93 168.03 148.9 168.25 148.86 168.48 148.82 168.71 148.77 168.93 148.72 169.16 148.65 169.39 148.58 169.61 148.49 169.84 148.4 170.07 148.29 170.3 148.17 170.52 148.04 170.75 147.89 170.98 147.73 171.2 147.55 171.43 147.34 171.66 147.12 171.88 146.88 172.11 146.62 172.34 146.34 172.56 146.03 172.79 145.69 173.02 145.33 173.24 144.95 173.47 144.54 173.7 144.1 173.92 143.63 174.15 143.13 174.38 142.61 174.61 142.05 174.83 141.47 175.06 140.86 175.29 140.21 175.51 139.54 175.74 138.84 175.97 138.1 176.19 137.34 176.42 136.55 176.65 135.72 176.87 134.87 177.1 133.99 177.33 133.08 177.55 132.14 177.78 131.18 178.01 130.18 178.24 129.16 178.46 128.12 178.69 127.05 178.92 125.96 179.14 124.84 179.37 123.71 179.6 122.56 179.82 121.4 180.05 120.23 180.28 119.05 180.5 117.87 180.73 116.69 180.96 115.52 181.18 114.35 181.41 113.21 181.64 112.08 181.87 110.99 182.09 109.93 182.32 108.91 182.55 107.94 182.77 107.02 183 106.16 183.23 105.37 183.45 104.64 183.68 104 183.91 103.43 184.13 102.95 184.36 102.56 184.59 102.26 184.81 102.05 185.04 101.94 185.27 101.92 185.49 101.99 185.72 102.15 185.95 102.4 186.18 102.73 186.4 103.14 186.63 103.63 186.86 104.18 187.08 104.78 187.31 105.45 187.54 106.15 187.76 106.89 187.99 107.65 188.22 108.43 188.44 109.22 188.67 110.01 188.9 110.78 189.12 111.54 189.35 112.27 189.58 112.97 189.81 113.62 190.03 114.23 190.26 114.79 190.49 115.29 190.71 115.72 190.94 116.1 191.17 116.41 191.39 116.65 191.62 116.83 191.85 116.94 192.07 116.98 192.3 116.97 192.53 116.89 192.75 116.76 192.98 116.58 193.21 116.35 193.44 116.07 193.66 115.77 193.89 115.43 194.12 115.06 194.34 114.68 194.57 114.28 194.8 113.87 195.02 113.46 195.25 113.06 195.48 112.66 195.7 112.27 195.93 111.9 196.16 111.55 196.38 111.23 196.61 110.93 196.84 110.66 197.06 110.42 197.29 110.22 197.52 110.05 197.75 109.91 197.97 109.81 198.2 109.75 198.43 109.73 198.65 109.73 198.88 109.78 199.11 109.85 199.33 109.96 199.56 110.1 199.79 110.27 200.01 110.47 200.24 110.7 200.47 110.95 200.69 111.23 200.92 111.53 201.15 111.86 201.38 112.2 201.6 112.57 201.83 112.96 202.06 113.38 202.28 113.81 202.51 114.27 202.74 114.74 202.96 115.24 203.19 115.76 203.42 116.3 203.64 116.86 203.87 117.44 204.1 118.05 204.32 118.68 204.55 119.32 204.78 119.99 205 120.68 205.23 121.39 205.46 122.11 205.69 122.85 205.91 123.61 206.14 124.37 206.37 125.15 206.59 125.93 206.82 126.72 207.05 127.51 207.27 128.3 207.5 129.09 207.73 129.87 207.95 130.64 208.18 131.39 208.41 132.13 208.63 132.85 208.86 133.56 209.09 134.23 209.32 134.89 209.54 135.51 209.77 136.11 210 136.68 210.22 137.21 210.45 137.72 210.68 138.19 210.9 138.63 211.13 139.04 211.36 139.42 211.58 139.78 211.81 140.1 212.04 140.39 212.26 140.67 212.49 140.92 212.72 141.14 212.95 141.35 213.17 141.55 213.4 141.73 213.63 141.9 213.85 142.06 214.08 142.21 214.31 142.36 214.53 142.5 214.76 142.65 214.99 142.79 215.21 142.94 215.44 143.09 215.67 143.24 215.89 143.4 216.12 143.57 216.35 143.74 216.57 143.92 216.8 144.1 217.03 144.29 217.26 144.48 217.48 144.68 217.71 144.88 217.94 145.09 218.16 145.29 218.39 145.5 218.62 145.71 218.84 145.91 219.07 146.12 219.3 146.32 219.52 146.51 219.75 146.7 219.98 146.89 220.2 147.06 220.43 147.23 220.66 147.4 220.89 147.55 221.11 147.69 221.34 147.83 221.57 147.96 221.79 148.08 222.02 148.19 222.25 148.29 222.47 148.38 222.7 148.46 222.93 148.54 223.15 148.61 223.38 148.67 223.61 148.73 223.83 148.78 224.06 148.82 224.29 148.86 224.52 148.9 224.74 148.93 224.97 148.95 225.2 148.98 225.42 149 225.65 149.01 225.88 149.03 226.1 149.04 226.33 149.05 226.56 149.06 226.78 149.07 227.01 149.07 227.24 149.08 227.46 149.08 227.69 149.09 227.92 149.09 228.14 149.09 228.37 149.1 228.6 149.1 228.83 149.1 229.05 149.1 229.28 149.1 229.51 149.1 229.73 149.1 229.96 149.1 230.19 149.1" class="geometry color_" stroke="#004D84"/>
            <path fill="none" d="M185.44,149.09 L 185.53 149.09 185.61 149.09 185.7 149.09 185.79 149.08 185.87 149.08 185.96 149.08 186.04 149.07 186.13 149.07 186.21 149.06 186.3 149.05 186.38 149.04 186.47 149.03 186.55 149.02 186.64 149 186.73 148.99 186.81 148.97 186.9 148.94 186.98 148.92 187.07 148.89 187.15 148.85 187.24 148.81 187.32 148.77 187.41 148.71 187.5 148.65 187.58 148.59 187.67 148.51 187.75 148.43 187.84 148.33 187.92 148.23 188.01 148.11 188.09 147.98 188.18 147.84 188.26 147.68 188.35 147.5 188.44 147.31 188.52 147.09 188.61 146.86 188.69 146.61 188.78 146.33 188.86 146.03 188.95 145.71 189.03 145.36 189.12 144.98 189.21 144.58 189.29 144.15 189.38 143.69 189.46 143.2 189.55 142.69 189.63 142.14 189.72 141.56 189.8 140.96 189.89 140.32 189.97 139.66 190.06 138.97 190.15 138.24 190.23 137.5 190.32 136.72 190.4 135.93 190.49 135.11 190.57 134.26 190.66 133.4 190.74 132.52 190.83 131.62 190.92 130.71 191 129.78 191.09 128.84 191.17 127.89 191.26 126.93 191.34 125.97 191.43 124.99 191.51 124.02 191.6 123.03 191.68 122.05 191.77 121.05 191.86 120.06 191.94 119.06 192.03 118.05 192.11 117.03 192.2 116.01 192.28 114.98 192.37 113.94 192.45 112.88 192.54 111.81 192.62 110.71 192.71 109.6 192.8 108.46 192.88 107.29 192.97 106.08 193.05 104.85 193.14 103.57 193.22 102.25 193.31 100.89 193.39 99.48 193.48 98.02 193.57 96.51 193.65 94.94 193.74 93.32 193.82 91.64 193.91 89.9 193.99 88.1 194.08 86.24 194.16 84.33 194.25 82.36 194.33 80.34 194.42 78.27 194.51 76.15 194.59 73.98 194.68 71.77 194.76 69.53 194.85 67.25 194.93 64.95 195.02 62.63 195.1 60.29 195.19 57.94 195.28 55.59 195.36 53.25 195.45 50.92 195.53 48.6 195.62 46.32 195.7 44.06 195.79 41.84 195.87 39.66 195.96 37.54 196.04 35.47 196.13 33.47 196.22 31.54 196.3 29.67 196.39 27.89 196.47 26.19 196.56 24.58 196.64 23.06 196.73 21.63 196.81 20.3 196.9 19.07 196.99 17.94 197.07 16.91 197.16 15.98 197.24 15.16 197.33 14.44 197.41 13.82 197.5 13.31 197.58 12.89 197.67 12.58 197.75 12.37 197.84 12.25 197.93 12.22 198.01 12.29 198.1 12.44 198.18 12.68 198.27 13 198.35 13.4 198.44 13.87 198.52 14.41 198.61 15.02 198.69 15.7 198.78 16.43 198.87 17.22 198.95 18.07 199.04 18.96 199.12 19.91 199.21 20.89 199.29 21.92 199.38 22.99 199.46 24.09 199.55 25.23 199.64 26.4 199.72 27.61 199.81 28.84 199.89 30.1 199.98 31.39 200.06 32.7 200.15 34.04 200.23 35.4 200.32 36.79 200.4 38.21 200.49 39.65 200.58 41.11 200.66 42.6 200.75 44.11 200.83 45.65 200.92 47.2 201 48.78 201.09 50.39 201.17 52.01 201.26 53.65 201.35 55.32 201.43 57 201.52 58.7 201.6 60.41 201.69 62.14 201.77 63.88 201.86 65.63 201.94 67.38 202.03 69.14 202.11 70.91 202.2 72.67 202.29 74.44 202.37 76.19 202.46 77.95 202.54 79.69 202.63 81.43 202.71 83.15 202.8 84.86 202.88 86.55 202.97 88.23 203.06 89.88 203.14 91.52 203.23 93.14 203.31 94.74 203.4 96.32 203.48 97.88 203.57 99.42 203.65 100.93 203.74 102.43 203.82 103.91 203.91 105.36 204 106.8 204.08 108.21 204.17 109.61 204.25 110.99 204.34 112.35 204.42 113.69 204.51 115.02 204.59 116.32 204.68 117.61 204.76 118.88 204.85 120.13 204.94 121.36 205.02 122.58 205.11 123.77 205.19 124.94 205.28 126.09 205.36 127.22 205.45 128.32 205.53 129.4 205.62 130.45 205.71 131.47 205.79 132.47 205.88 133.44 205.96 134.38 206.05 135.28 206.13 136.16 206.22 137 206.3 137.81 206.39 138.58 206.47 139.33 206.56 140.03 206.65 140.71 206.73 141.35 206.82 141.95 206.9 142.53 206.99 143.07 207.07 143.57 207.16 144.05 207.24 144.49 207.33 144.91 207.42 145.3 207.5 145.65 207.59 145.99 207.67 146.29 207.76 146.57 207.84 146.83 207.93 147.07 208.01 147.29 208.1 147.48 208.18 147.66 208.27 147.83 208.36 147.97 208.44 148.1 208.53 148.22 208.61 148.33 208.7 148.43 208.78 148.51 208.87 148.59 208.95 148.65 209.04 148.71 209.13 148.76 209.21 148.81 209.3 148.85 209.38 148.89 209.47 148.92 209.55 148.94 209.64 148.97 209.72 148.99 209.81 149 209.89 149.02 209.98 149.03 210.07 149.04 210.15 149.05 210.24 149.06 210.32 149.07 210.41 149.07 210.49 149.08 210.58 149.08 210.66 149.08 210.75 149.09 210.84 149.09 210.92 149.09 211.01 149.09" class="geometry color_" stroke="#7E273E"/>
            <path fill="none" d="M176.24,149.09 L 176.36 149.09 176.48 149.09 176.6 149.09 176.72 149.09 176.85 149.09 176.97 149.09 177.09 149.08 177.21 149.08 177.33 149.08 177.45 149.07 177.57 149.07 177.69 149.06 177.81 149.05 177.93 149.04 178.05 149.03 178.18 149.02 178.3 149.01 178.42 149 178.54 148.98 178.66 148.96 178.78 148.94 178.9 148.91 179.02 148.88 179.14 148.85 179.26 148.82 179.38 148.78 179.51 148.73 179.63 148.68 179.75 148.62 179.87 148.56 179.99 148.49 180.11 148.41 180.23 148.32 180.35 148.22 180.47 148.11 180.59 147.99 180.71 147.86 180.84 147.71 180.96 147.56 181.08 147.38 181.2 147.19 181.32 146.98 181.44 146.76 181.56 146.51 181.68 146.24 181.8 145.96 181.92 145.65 182.04 145.31 182.17 144.95 182.29 144.57 182.41 144.15 182.53 143.71 182.65 143.24 182.77 142.74 182.89 142.21 183.01 141.65 183.13 141.06 183.25 140.43 183.37 139.77 183.5 139.08 183.62 138.36 183.74 137.6 183.86 136.82 183.98 136 184.1 135.14 184.22 134.26 184.34 133.35 184.46 132.41 184.58 131.45 184.7 130.46 184.83 129.44 184.95 128.41 185.07 127.35 185.19 126.28 185.31 125.2 185.43 124.1 185.55 122.99 185.67 121.88 185.79 120.76 185.91 119.65 186.03 118.53 186.16 117.43 186.28 116.33 186.4 115.24 186.52 114.17 186.64 113.12 186.76 112.09 186.88 111.09 187 110.11 187.12 109.16 187.24 108.25 187.36 107.37 187.49 106.53 187.61 105.72 187.73 104.96 187.85 104.24 187.97 103.56 188.09 102.93 188.21 102.34 188.33 101.79 188.45 101.29 188.57 100.84 188.69 100.43 188.82 100.06 188.94 99.73 189.06 99.45 189.18 99.2 189.3 98.99 189.42 98.81 189.54 98.67 189.66 98.55 189.78 98.46 189.9 98.4 190.02 98.36 190.15 98.33 190.27 98.32 190.39 98.31 190.51 98.32 190.63 98.33 190.75 98.33 190.87 98.34 190.99 98.34 191.11 98.33 191.23 98.3 191.35 98.26 191.48 98.2 191.6 98.11 191.72 98 191.84 97.86 191.96 97.69 192.08 97.49 192.2 97.26 192.32 96.98 192.44 96.67 192.56 96.32 192.68 95.93 192.81 95.5 192.93 95.03 193.05 94.52 193.17 93.96 193.29 93.36 193.41 92.72 193.53 92.04 193.65 91.32 193.77 90.56 193.89 89.76 194.01 88.93 194.14 88.06 194.26 87.16 194.38 86.23 194.5 85.27 194.62 84.29 194.74 83.28 194.86 82.25 194.98 81.21 195.1 80.15 195.22 79.07 195.34 77.99 195.47 76.91 195.59 75.82 195.71 74.73 195.83 73.65 195.95 72.58 196.07 71.51 196.19 70.47 196.31 69.44 196.43 68.43 196.55 67.44 196.67 66.49 196.8 65.57 196.92 64.68 197.04 63.83 197.16 63.02 197.28 62.26 197.4 61.55 197.52 60.89 197.64 60.28 197.76 59.73 197.88 59.25 198 58.83 198.13 58.47 198.25 58.19 198.37 57.97 198.49 57.84 198.61 57.77 198.73 57.79 198.85 57.89 198.97 58.08 199.09 58.34 199.21 58.69 199.33 59.13 199.46 59.66 199.58 60.27 199.7 60.98 199.82 61.77 199.94 62.64 200.06 63.61 200.18 64.65 200.3 65.79 200.42 67 200.54 68.29 200.66 69.66 200.79 71.1 200.91 72.61 201.03 74.19 201.15 75.84 201.27 77.54 201.39 79.29 201.51 81.1 201.63 82.95 201.75 84.83 201.87 86.76 201.99 88.71 202.12 90.68 202.24 92.68 202.36 94.68 202.48 96.7 202.6 98.71 202.72 100.72 202.84 102.73 202.96 104.71 203.08 106.68 203.2 108.63 203.32 110.55 203.45 112.43 203.57 114.28 203.69 116.09 203.81 117.86 203.93 119.58 204.05 121.25 204.17 122.87 204.29 124.44 204.41 125.95 204.53 127.41 204.65 128.81 204.78 130.15 204.9 131.43 205.02 132.66 205.14 133.82 205.26 134.93 205.38 135.98 205.5 136.97 205.62 137.91 205.74 138.79 205.86 139.62 205.98 140.4 206.11 141.13 206.23 141.81 206.35 142.44 206.47 143.03 206.59 143.58 206.71 144.09 206.83 144.56 206.95 144.99 207.07 145.39 207.19 145.75 207.31 146.09 207.44 146.39 207.56 146.67 207.68 146.93 207.8 147.16 207.92 147.37 208.04 147.56 208.16 147.73 208.28 147.89 208.4 148.02 208.52 148.15 208.64 148.26 208.77 148.36 208.89 148.45 209.01 148.53 209.13 148.6 209.25 148.67 209.37 148.72 209.49 148.77 209.61 148.81 209.73 148.85 209.85 148.89 209.97 148.92 210.1 148.94 210.22 148.96 210.34 148.98 210.46 149 210.58 149.01 210.7 149.03 210.82 149.04 210.94 149.05 211.06 149.06 211.18 149.06 211.3 149.07 211.43 149.07 211.55 149.08 211.67 149.08 211.79 149.08 211.91 149.09 212.03 149.09 212.15 149.09 212.27 149.09 212.39 149.09" class="geometry color_" stroke="#88C4C4"/>
            <path fill="none" d="M174.46,149.09 L 174.62 149.09 174.79 149.09 174.95 149.09 175.11 149.09 175.28 149.08 175.44 149.08 175.6 149.08 175.77 149.07 175.93 149.07 176.09 149.06 176.26 149.05 176.42 149.05 176.58 149.04 176.75 149.03 176.91 149.01 177.07 149 177.24 148.98 177.4 148.97 177.56 148.95 177.73 148.92 177.89 148.9 178.05 148.87 178.22 148.83 178.38 148.79 178.54 148.75 178.71 148.7 178.87 148.65 179.03 148.59 179.2 148.52 179.36 148.45 179.52 148.36 179.69 148.27 179.85 148.17 180.01 148.06 180.18 147.93 180.34 147.8 180.5 147.65 180.67 147.49 180.83 147.31 180.99 147.11 181.16 146.9 181.32 146.67 181.48 146.42 181.65 146.15 181.81 145.86 181.97 145.54 182.14 145.21 182.3 144.84 182.46 144.45 182.63 144.04 182.79 143.6 182.95 143.13 183.12 142.63 183.28 142.1 183.44 141.54 183.61 140.95 183.77 140.33 183.93 139.67 184.1 138.99 184.26 138.28 184.42 137.53 184.59 136.76 184.75 135.96 184.91 135.13 185.08 134.27 185.24 133.39 185.4 132.48 185.57 131.55 185.73 130.6 185.89 129.63 186.06 128.65 186.22 127.65 186.38 126.65 186.55 125.63 186.71 124.61 186.87 123.6 187.04 122.58 187.2 121.57 187.36 120.57 187.53 119.59 187.69 118.62 187.85 117.67 188.02 116.75 188.18 115.86 188.34 115 188.51 114.18 188.67 113.39 188.83 112.65 189 111.96 189.16 111.31 189.32 110.72 189.49 110.18 189.65 109.7 189.81 109.27 189.98 108.91 190.14 108.6 190.3 108.36 190.47 108.18 190.63 108.07 190.79 108.02 190.96 108.03 191.12 108.1 191.28 108.22 191.45 108.41 191.61 108.65 191.77 108.95 191.94 109.29 192.1 109.68 192.26 110.12 192.43 110.59 192.59 111.1 192.75 111.64 192.92 112.2 193.08 112.79 193.24 113.39 193.41 114 193.57 114.62 193.73 115.24 193.89 115.85 194.06 116.45 194.22 117.04 194.38 117.6 194.55 118.14 194.71 118.64 194.87 119.11 195.04 119.53 195.2 119.91 195.36 120.24 195.53 120.51 195.69 120.72 195.85 120.87 196.02 120.95 196.18 120.97 196.34 120.91 196.51 120.78 196.67 120.57 196.83 120.29 197 119.93 197.16 119.49 197.32 118.97 197.49 118.37 197.65 117.7 197.81 116.95 197.98 116.13 198.14 115.23 198.3 114.26 198.47 113.23 198.63 112.13 198.79 110.97 198.96 109.75 199.12 108.49 199.28 107.18 199.45 105.82 199.61 104.43 199.77 103 199.94 101.56 200.1 100.09 200.26 98.61 200.43 97.12 200.59 95.63 200.75 94.15 200.92 92.68 201.08 91.23 201.24 89.8 201.41 88.41 201.57 87.06 201.73 85.75 201.9 84.49 202.06 83.28 202.22 82.14 202.39 81.06 202.55 80.06 202.71 79.13 202.88 78.28 203.04 77.52 203.2 76.84 203.37 76.26 203.53 75.77 203.69 75.37 203.86 75.07 204.02 74.88 204.18 74.78 204.35 74.78 204.51 74.88 204.67 75.08 204.84 75.38 205 75.78 205.16 76.28 205.33 76.86 205.49 77.55 205.65 78.31 205.82 79.17 205.98 80.11 206.14 81.12 206.31 82.21 206.47 83.37 206.63 84.6 206.8 85.89 206.96 87.24 207.12 88.63 207.29 90.08 207.45 91.57 207.61 93.09 207.78 94.65 207.94 96.23 208.1 97.84 208.27 99.46 208.43 101.1 208.59 102.75 208.76 104.4 208.92 106.04 209.08 107.69 209.25 109.32 209.41 110.94 209.57 112.55 209.74 114.13 209.9 115.7 210.06 117.23 210.23 118.74 210.39 120.21 210.55 121.65 210.72 123.06 210.88 124.43 211.04 125.75 211.21 127.04 211.37 128.29 211.53 129.49 211.7 130.65 211.86 131.77 212.02 132.84 212.19 133.86 212.35 134.85 212.51 135.78 212.68 136.68 212.84 137.53 213 138.34 213.17 139.1 213.33 139.83 213.49 140.52 213.66 141.16 213.82 141.77 213.98 142.34 214.15 142.88 214.31 143.38 214.47 143.85 214.64 144.29 214.8 144.7 214.96 145.08 215.13 145.44 215.29 145.76 215.45 146.07 215.62 146.35 215.78 146.6 215.94 146.84 216.11 147.06 216.27 147.26 216.43 147.44 216.6 147.61 216.76 147.76 216.92 147.9 217.09 148.03 217.25 148.14 217.41 148.24 217.58 148.34 217.74 148.42 217.9 148.5 218.07 148.57 218.23 148.63 218.39 148.68 218.56 148.73 218.72 148.78 218.88 148.82 219.05 148.85 219.21 148.88 219.37 148.91 219.54 148.94 219.7 148.96 219.86 148.98 220.03 148.99 220.19 149.01 220.35 149.02 220.52 149.03 220.68 149.04 220.84 149.05 221.01 149.06 221.17 149.06 221.33 149.07 221.5 149.07 221.66 149.08 221.82 149.08 221.99 149.08 222.15 149.09 222.31 149.09 222.48 149.09 222.64 149.09 222.8 149.09 222.96 149.09 223.13 149.09 223.29 149.09" class="geometry color_" stroke="#BECAB9"/>
          </g>
        </g>
      </g>
</g>
<g clip-path="url(#img-45ae1100-22)">
      <g id="img-45ae1100-23">
        <g pointer-events="visible" opacity="1" fill="#000000" fill-opacity="0.000" stroke="#000000" stroke-opacity="0.000" class="guide background" id="img-45ae1100-24">
          <rect x="11.02" y="7" width="136.26" height="144.1"/>
        </g>
        <g class="guide ygridlines xfixed" stroke-dasharray="0.5,0.5" stroke-width="0.2" stroke="#D0D0E0" id="img-45ae1100-25">
          <path fill="none" d="M11.02,149.1 L 147.28 149.1"/>
          <path fill="none" d="M11.02,102.4 L 147.28 102.4"/>
          <path fill="none" d="M11.02,55.7 L 147.28 55.7"/>
          <path fill="none" d="M11.02,9 L 147.28 9"/>
        </g>
        <g class="guide xgridlines yfixed" stroke-dasharray="0.5,0.5" stroke-width="0.2" stroke="#D0D0E0" id="img-45ae1100-26">
          <path fill="none" d="M13.02,7 L 13.02 151.1"/>
          <path fill="none" d="M39.47,7 L 39.47 151.1"/>
          <path fill="none" d="M65.93,7 L 65.93 151.1"/>
          <path fill="none" d="M92.38,7 L 92.38 151.1"/>
          <path fill="none" d="M118.83,7 L 118.83 151.1"/>
          <path fill="none" d="M145.28,7 L 145.28 151.1"/>
        </g>
        <g class="plotpanel" id="img-45ae1100-27">
          <g stroke-width="0.3" fill="#000000" fill-opacity="0.000" stroke-dasharray="none" id="img-45ae1100-28">
            <path fill="none" d="M23.06,149.1 L 23.41 149.1 23.75 149.1 24.1 149.1 24.44 149.1 24.79 149.1 25.13 149.1 25.47 149.1 25.82 149.1 26.16 149.09 26.51 149.09 26.85 149.09 27.19 149.09 27.54 149.08 27.88 149.08 28.23 149.07 28.57 149.06 28.92 149.06 29.26 149.05 29.6 149.03 29.95 149.02 30.29 149 30.64 148.98 30.98 148.95 31.33 148.93 31.67 148.89 32.01 148.85 32.36 148.81 32.7 148.76 33.05 148.7 33.39 148.63 33.73 148.56 34.08 148.47 34.42 148.38 34.77 148.27 35.11 148.14 35.46 148.01 35.8 147.86 36.14 147.69 36.49 147.5 36.83 147.3 37.18 147.07 37.52 146.82 37.87 146.55 38.21 146.26 38.55 145.94 38.9 145.6 39.24 145.23 39.59 144.82 39.93 144.39 40.27 143.93 40.62 143.44 40.96 142.92 41.31 142.36 41.65 141.77 42 141.15 42.34 140.49 42.68 139.81 43.03 139.09 43.37 138.34 43.72 137.56 44.06 136.75 44.4 135.92 44.75 135.06 45.09 134.18 45.44 133.28 45.78 132.37 46.13 131.45 46.47 130.53 46.81 129.6 47.16 128.67 47.5 127.75 47.85 126.85 48.19 125.96 48.54 125.09 48.88 124.25 49.22 123.44 49.57 122.67 49.91 121.93 50.26 121.24 50.6 120.59 50.94 120 51.29 119.45 51.63 118.96 51.98 118.52 52.32 118.13 52.67 117.79 53.01 117.5 53.35 117.26 53.7 117.07 54.04 116.91 54.39 116.8 54.73 116.72 55.08 116.68 55.42 116.66 55.76 116.66 56.11 116.68 56.45 116.72 56.8 116.76 57.14 116.81 57.48 116.87 57.83 116.92 58.17 116.98 58.52 117.03 58.86 117.07 59.21 117.1 59.55 117.13 59.89 117.15 60.24 117.17 60.58 117.17 60.93 117.18 61.27 117.18 61.62 117.18 61.96 117.18 62.3 117.18 62.65 117.19 62.99 117.21 63.34 117.24 63.68 117.28 64.02 117.34 64.37 117.42 64.71 117.51 65.06 117.62 65.4 117.75 65.75 117.9 66.09 118.07 66.43 118.26 66.78 118.47 67.12 118.7 67.47 118.95 67.81 119.21 68.15 119.48 68.5 119.77 68.84 120.07 69.19 120.38 69.53 120.7 69.88 121.02 70.22 121.34 70.56 121.66 70.91 121.99 71.25 122.32 71.6 122.64 71.94 122.96 72.29 123.28 72.63 123.6 72.97 123.91 73.32 124.22 73.66 124.53 74.01 124.83 74.35 125.14 74.69 125.44 75.04 125.74 75.38 126.05 75.73 126.35 76.07 126.66 76.42 126.98 76.76 127.29 77.1 127.61 77.45 127.94 77.79 128.27 78.14 128.61 78.48 128.95 78.83 129.3 79.17 129.66 79.51 130.02 79.86 130.38 80.2 130.75 80.55 131.12 80.89 131.5 81.23 131.87 81.58 132.25 81.92 132.64 82.27 133.02 82.61 133.4 82.96 133.77 83.3 134.15 83.64 134.53 83.99 134.9 84.33 135.26 84.68 135.62 85.02 135.98 85.37 136.33 85.71 136.68 86.05 137.02 86.4 137.35 86.74 137.68 87.09 138 87.43 138.32 87.77 138.63 88.12 138.93 88.46 139.23 88.81 139.52 89.15 139.81 89.5 140.1 89.84 140.37 90.18 140.65 90.53 140.92 90.87 141.19 91.22 141.45 91.56 141.71 91.9 141.97 92.25 142.22 92.59 142.47 92.94 142.71 93.28 142.95 93.63 143.19 93.97 143.41 94.31 143.64 94.66 143.85 95 144.06 95.35 144.27 95.69 144.46 96.04 144.65 96.38 144.82 96.72 144.99 97.07 145.14 97.41 145.29 97.76 145.43 98.1 145.55 98.44 145.67 98.79 145.78 99.13 145.87 99.48 145.96 99.82 146.04 100.17 146.11 100.51 146.18 100.85 146.24 101.2 146.3 101.54 146.35 101.89 146.4 102.23 146.45 102.58 146.5 102.92 146.54 103.26 146.59 103.61 146.64 103.95 146.69 104.3 146.75 104.64 146.8 104.98 146.86 105.33 146.92 105.67 146.99 106.02 147.06 106.36 147.13 106.71 147.21 107.05 147.29 107.39 147.37 107.74 147.45 108.08 147.53 108.43 147.62 108.77 147.7 109.11 147.79 109.46 147.87 109.8 147.95 110.15 148.04 110.49 148.12 110.84 148.19 111.18 148.27 111.52 148.34 111.87 148.41 112.21 148.47 112.56 148.53 112.9 148.59 113.25 148.64 113.59 148.69 113.93 148.74 114.28 148.78 114.62 148.82 114.97 148.85 115.31 148.88 115.65 148.91 116 148.94 116.34 148.96 116.69 148.98 117.03 149 117.38 149.01 117.72 149.03 118.06 149.04 118.41 149.05 118.75 149.06 119.1 149.07 119.44 149.07 119.79 149.08 120.13 149.08 120.47 149.09 120.82 149.09 121.16 149.09 121.51 149.09 121.85 149.1 122.19 149.1 122.54 149.1 122.88 149.1 123.23 149.1 123.57 149.1 123.92 149.1 124.26 149.1 124.6 149.1 124.95 149.1 125.29 149.1 125.64 149.1 125.98 149.1" class="geometry color_" stroke="#004D84"/>
            <path fill="none" d="M51.57,149.09 L 51.72 149.09 51.87 149.09 52.02 149.09 52.17 149.09 52.32 149.09 52.46 149.09 52.61 149.09 52.76 149.08 52.91 149.08 53.06 149.08 53.21 149.07 53.36 149.07 53.51 149.06 53.66 149.05 53.81 149.05 53.96 149.04 54.1 149.02 54.25 149.01 54.4 149 54.55 148.98 54.7 148.96 54.85 148.94 55 148.92 55.15 148.89 55.3 148.86 55.45 148.82 55.6 148.78 55.74 148.73 55.89 148.68 56.04 148.63 56.19 148.56 56.34 148.49 56.49 148.41 56.64 148.32 56.79 148.23 56.94 148.12 57.09 148 57.24 147.87 57.39 147.72 57.53 147.56 57.68 147.39 57.83 147.2 57.98 146.99 58.13 146.77 58.28 146.52 58.43 146.26 58.58 145.97 58.73 145.66 58.88 145.32 59.03 144.96 59.17 144.57 59.32 144.16 59.47 143.71 59.62 143.24 59.77 142.73 59.92 142.19 60.07 141.62 60.22 141.02 60.37 140.38 60.52 139.71 60.67 139 60.81 138.26 60.96 137.48 61.11 136.66 61.26 135.81 61.41 134.92 61.56 134 61.71 133.05 61.86 132.05 62.01 131.03 62.16 129.98 62.31 128.89 62.45 127.77 62.6 126.63 62.75 125.46 62.9 124.27 63.05 123.06 63.2 121.83 63.35 120.58 63.5 119.32 63.65 118.04 63.8 116.76 63.95 115.47 64.09 114.18 64.24 112.89 64.39 111.61 64.54 110.33 64.69 109.06 64.84 107.81 64.99 106.57 65.14 105.35 65.29 104.15 65.44 102.97 65.59 101.83 65.74 100.71 65.88 99.63 66.03 98.57 66.18 97.56 66.33 96.58 66.48 95.64 66.63 94.74 66.78 93.88 66.93 93.07 67.08 92.29 67.23 91.56 67.38 90.87 67.52 90.22 67.67 89.61 67.82 89.05 67.97 88.52 68.12 88.03 68.27 87.58 68.42 87.16 68.57 86.78 68.72 86.43 68.87 86.12 69.02 85.83 69.16 85.57 69.31 85.33 69.46 85.12 69.61 84.93 69.76 84.76 69.91 84.6 70.06 84.47 70.21 84.35 70.36 84.24 70.51 84.15 70.66 84.07 70.8 83.99 70.95 83.93 71.1 83.88 71.25 83.83 71.4 83.8 71.55 83.77 71.7 83.75 71.85 83.74 72 83.73 72.15 83.74 72.3 83.75 72.44 83.77 72.59 83.8 72.74 83.84 72.89 83.89 73.04 83.95 73.19 84.03 73.34 84.12 73.49 84.22 73.64 84.33 73.79 84.46 73.94 84.6 74.08 84.76 74.23 84.94 74.38 85.13 74.53 85.34 74.68 85.57 74.83 85.81 74.98 86.08 75.13 86.36 75.28 86.65 75.43 86.97 75.58 87.3 75.73 87.65 75.87 88.02 76.02 88.4 76.17 88.8 76.32 89.21 76.47 89.64 76.62 90.08 76.77 90.54 76.92 91.01 77.07 91.49 77.22 91.98 77.37 92.48 77.51 93 77.66 93.52 77.81 94.05 77.96 94.59 78.11 95.13 78.26 95.68 78.41 96.24 78.56 96.8 78.71 97.37 78.86 97.94 79.01 98.51 79.15 99.09 79.3 99.68 79.45 100.27 79.6 100.86 79.75 101.45 79.9 102.06 80.05 102.66 80.2 103.27 80.35 103.89 80.5 104.52 80.65 105.15 80.79 105.79 80.94 106.43 81.09 107.09 81.24 107.76 81.39 108.43 81.54 109.12 81.69 109.82 81.84 110.53 81.99 111.26 82.14 112 82.29 112.75 82.43 113.51 82.58 114.29 82.73 115.08 82.88 115.89 83.03 116.7 83.18 117.53 83.33 118.37 83.48 119.23 83.63 120.09 83.78 120.96 83.93 121.83 84.08 122.72 84.22 123.61 84.37 124.5 84.52 125.39 84.67 126.28 84.82 127.17 84.97 128.06 85.12 128.94 85.27 129.81 85.42 130.68 85.57 131.53 85.72 132.37 85.86 133.2 86.01 134.01 86.16 134.8 86.31 135.58 86.46 136.33 86.61 137.06 86.76 137.77 86.91 138.46 87.06 139.13 87.21 139.76 87.36 140.38 87.5 140.97 87.65 141.53 87.8 142.07 87.95 142.58 88.1 143.06 88.25 143.52 88.4 143.96 88.55 144.37 88.7 144.75 88.85 145.11 89 145.45 89.14 145.77 89.29 146.06 89.44 146.34 89.59 146.59 89.74 146.83 89.89 147.04 90.04 147.24 90.19 147.43 90.34 147.6 90.49 147.75 90.64 147.89 90.78 148.02 90.93 148.14 91.08 148.24 91.23 148.34 91.38 148.42 91.53 148.5 91.68 148.57 91.83 148.64 91.98 148.69 92.13 148.74 92.28 148.79 92.42 148.83 92.57 148.86 92.72 148.89 92.87 148.92 93.02 148.94 93.17 148.97 93.32 148.98 93.47 149 93.62 149.02 93.77 149.03 93.92 149.04 94.07 149.05 94.21 149.06 94.36 149.06 94.51 149.07 94.66 149.07 94.81 149.08 94.96 149.08 95.11 149.08 95.26 149.09 95.41 149.09 95.56 149.09 95.71 149.09 95.85 149.09 96 149.09 96.15 149.09" class="geometry color_" stroke="#7E273E"/>
            <path fill="none" d="M46.34,149.09 L 46.5 149.09 46.65 149.09 46.8 149.09 46.95 149.09 47.11 149.09 47.26 149.09 47.41 149.08 47.57 149.08 47.72 149.08 47.87 149.07 48.03 149.07 48.18 149.06 48.33 149.05 48.49 149.04 48.64 149.03 48.79 149.02 48.94 149.01 49.1 148.99 49.25 148.97 49.4 148.95 49.56 148.93 49.71 148.9 49.86 148.87 50.02 148.83 50.17 148.79 50.32 148.75 50.48 148.69 50.63 148.64 50.78 148.57 50.94 148.5 51.09 148.41 51.24 148.32 51.39 148.22 51.55 148.11 51.7 147.98 51.85 147.85 52.01 147.7 52.16 147.53 52.31 147.35 52.47 147.14 52.62 146.93 52.77 146.69 52.93 146.43 53.08 146.15 53.23 145.85 53.39 145.52 53.54 145.17 53.69 144.79 53.84 144.38 54 143.95 54.15 143.49 54.3 143 54.46 142.48 54.61 141.93 54.76 141.34 54.92 140.73 55.07 140.09 55.22 139.41 55.38 138.7 55.53 137.97 55.68 137.2 55.83 136.4 55.99 135.57 56.14 134.72 56.29 133.84 56.45 132.93 56.6 132 56.75 131.05 56.91 130.07 57.06 129.08 57.21 128.07 57.37 127.04 57.52 126 57.67 124.96 57.83 123.9 57.98 122.84 58.13 121.77 58.28 120.7 58.44 119.63 58.59 118.57 58.74 117.51 58.9 116.46 59.05 115.42 59.2 114.39 59.36 113.37 59.51 112.38 59.66 111.39 59.82 110.43 59.97 109.49 60.12 108.57 60.28 107.67 60.43 106.8 60.58 105.95 60.73 105.13 60.89 104.33 61.04 103.57 61.19 102.82 61.35 102.11 61.5 101.42 61.65 100.76 61.81 100.12 61.96 99.52 62.11 98.93 62.27 98.37 62.42 97.84 62.57 97.33 62.72 96.84 62.88 96.37 63.03 95.92 63.18 95.48 63.34 95.07 63.49 94.67 63.64 94.28 63.8 93.9 63.95 93.53 64.1 93.18 64.26 92.82 64.41 92.48 64.56 92.14 64.72 91.79 64.87 91.45 65.02 91.11 65.17 90.77 65.33 90.42 65.48 90.07 65.63 89.71 65.79 89.35 65.94 88.98 66.09 88.61 66.25 88.23 66.4 87.84 66.55 87.45 66.71 87.06 66.86 86.66 67.01 86.26 67.17 85.86 67.32 85.46 67.47 85.07 67.62 84.68 67.78 84.3 67.93 83.93 68.08 83.57 68.24 83.23 68.39 82.91 68.54 82.62 68.7 82.34 68.85 82.1 69 81.88 69.16 81.7 69.31 81.55 69.46 81.44 69.61 81.37 69.77 81.34 69.92 81.35 70.07 81.41 70.23 81.51 70.38 81.65 70.53 81.84 70.69 82.08 70.84 82.36 70.99 82.68 71.15 83.04 71.3 83.45 71.45 83.89 71.61 84.37 71.76 84.89 71.91 85.44 72.06 86.03 72.22 86.64 72.37 87.28 72.52 87.95 72.68 88.64 72.83 89.35 72.98 90.07 73.14 90.82 73.29 91.57 73.44 92.34 73.6 93.12 73.75 93.9 73.9 94.69 74.06 95.49 74.21 96.29 74.36 97.1 74.51 97.91 74.67 98.72 74.82 99.53 74.97 100.34 75.13 101.16 75.28 101.97 75.43 102.79 75.59 103.6 75.74 104.42 75.89 105.24 76.05 106.06 76.2 106.88 76.35 107.71 76.5 108.53 76.66 109.36 76.81 110.19 76.96 111.02 77.12 111.86 77.27 112.7 77.42 113.54 77.58 114.39 77.73 115.23 77.88 116.08 78.04 116.94 78.19 117.79 78.34 118.65 78.5 119.5 78.65 120.36 78.8 121.22 78.95 122.07 79.11 122.93 79.26 123.78 79.41 124.63 79.57 125.47 79.72 126.32 79.87 127.15 80.03 127.98 80.18 128.8 80.33 129.61 80.49 130.41 80.64 131.2 80.79 131.98 80.95 132.75 81.1 133.5 81.25 134.24 81.4 134.97 81.56 135.68 81.71 136.37 81.86 137.04 82.02 137.69 82.17 138.33 82.32 138.95 82.48 139.54 82.63 140.12 82.78 140.67 82.94 141.2 83.09 141.72 83.24 142.21 83.39 142.68 83.55 143.12 83.7 143.55 83.85 143.96 84.01 144.34 84.16 144.7 84.31 145.05 84.47 145.37 84.62 145.67 84.77 145.96 84.93 146.23 85.08 146.48 85.23 146.71 85.39 146.92 85.54 147.13 85.69 147.31 85.84 147.48 86 147.64 86.15 147.79 86.3 147.92 86.46 148.04 86.61 148.15 86.76 148.25 86.92 148.35 87.07 148.43 87.22 148.5 87.38 148.57 87.53 148.63 87.68 148.69 87.84 148.74 87.99 148.78 88.14 148.82 88.29 148.86 88.45 148.89 88.6 148.92 88.75 148.94 88.91 148.96 89.06 148.98 89.21 149 89.37 149.01 89.52 149.03 89.67 149.04 89.83 149.05 89.98 149.05 90.13 149.06 90.28 149.07 90.44 149.07 90.59 149.08 90.74 149.08 90.9 149.08 91.05 149.09 91.2 149.09 91.36 149.09 91.51 149.09 91.66 149.09 91.82 149.09 91.97 149.09 92.12 149.09" class="geometry color_" stroke="#88C4C4"/>
            <path fill="none" d="M43.81,149.09 L 44.04 149.09 44.27 149.09 44.49 149.09 44.72 149.09 44.95 149.09 45.18 149.08 45.4 149.08 45.63 149.08 45.86 149.07 46.09 149.07 46.31 149.06 46.54 149.05 46.77 149.05 47 149.04 47.23 149.02 47.45 149.01 47.68 149 47.91 148.98 48.14 148.96 48.36 148.94 48.59 148.92 48.82 148.89 49.05 148.86 49.27 148.82 49.5 148.78 49.73 148.74 49.96 148.68 50.18 148.63 50.41 148.56 50.64 148.49 50.87 148.41 51.09 148.33 51.32 148.23 51.55 148.12 51.78 148 52 147.87 52.23 147.72 52.46 147.56 52.69 147.39 52.91 147.2 53.14 146.99 53.37 146.76 53.6 146.51 53.82 146.24 54.05 145.95 54.28 145.64 54.51 145.3 54.73 144.93 54.96 144.54 55.19 144.12 55.42 143.67 55.64 143.19 55.87 142.68 56.1 142.14 56.33 141.56 56.55 140.96 56.78 140.31 57.01 139.64 57.24 138.93 57.46 138.18 57.69 137.41 57.92 136.59 58.15 135.75 58.37 134.87 58.6 133.96 58.83 133.02 59.06 132.04 59.28 131.05 59.51 130.02 59.74 128.97 59.97 127.9 60.19 126.8 60.42 125.69 60.65 124.57 60.88 123.43 61.1 122.28 61.33 121.13 61.56 119.98 61.79 118.82 62.02 117.68 62.24 116.54 62.47 115.41 62.7 114.3 62.93 113.21 63.15 112.14 63.38 111.09 63.61 110.08 63.84 109.1 64.06 108.16 64.29 107.26 64.52 106.4 64.75 105.59 64.97 104.83 65.2 104.11 65.43 103.45 65.66 102.85 65.88 102.3 66.11 101.81 66.34 101.37 66.57 101 66.79 100.68 67.02 100.42 67.25 100.22 67.48 100.08 67.7 100 67.93 99.97 68.16 100 68.39 100.08 68.61 100.2 68.84 100.38 69.07 100.61 69.3 100.87 69.52 101.18 69.75 101.53 69.98 101.91 70.21 102.32 70.43 102.76 70.66 103.22 70.89 103.71 71.12 104.22 71.34 104.74 71.57 105.27 71.8 105.82 72.03 106.37 72.25 106.93 72.48 107.48 72.71 108.04 72.94 108.59 73.16 109.14 73.39 109.68 73.62 110.22 73.85 110.74 74.07 111.24 74.3 111.74 74.53 112.22 74.76 112.68 74.98 113.13 75.21 113.56 75.44 113.97 75.67 114.37 75.9 114.75 76.12 115.1 76.35 115.45 76.58 115.77 76.81 116.08 77.03 116.37 77.26 116.64 77.49 116.9 77.72 117.15 77.94 117.38 78.17 117.59 78.4 117.8 78.63 117.99 78.85 118.17 79.08 118.34 79.31 118.5 79.54 118.65 79.76 118.79 79.99 118.93 80.22 119.06 80.45 119.18 80.67 119.3 80.9 119.41 81.13 119.52 81.36 119.63 81.58 119.73 81.81 119.83 82.04 119.94 82.27 120.04 82.49 120.14 82.72 120.24 82.95 120.34 83.18 120.44 83.4 120.55 83.63 120.66 83.86 120.77 84.09 120.88 84.31 121 84.54 121.13 84.77 121.26 85 121.4 85.22 121.55 85.45 121.7 85.68 121.87 85.91 122.04 86.13 122.22 86.36 122.41 86.59 122.62 86.82 122.83 87.04 123.06 87.27 123.3 87.5 123.56 87.73 123.83 87.95 124.11 88.18 124.41 88.41 124.72 88.64 125.04 88.86 125.39 89.09 125.74 89.32 126.11 89.55 126.5 89.78 126.9 90 127.31 90.23 127.74 90.46 128.18 90.69 128.64 90.91 129.1 91.14 129.58 91.37 130.07 91.6 130.57 91.82 131.07 92.05 131.59 92.28 132.11 92.51 132.64 92.73 133.17 92.96 133.7 93.19 134.24 93.42 134.77 93.64 135.31 93.87 135.85 94.1 136.38 94.33 136.91 94.55 137.43 94.78 137.95 95.01 138.46 95.24 138.96 95.46 139.46 95.69 139.94 95.92 140.41 96.15 140.87 96.37 141.32 96.6 141.76 96.83 142.18 97.06 142.59 97.28 142.99 97.51 143.37 97.74 143.73 97.97 144.08 98.19 144.42 98.42 144.74 98.65 145.04 98.88 145.33 99.1 145.61 99.33 145.87 99.56 146.11 99.79 146.34 100.01 146.56 100.24 146.77 100.47 146.96 100.7 147.14 100.92 147.31 101.15 147.46 101.38 147.61 101.61 147.75 101.83 147.87 102.06 147.99 102.29 148.09 102.52 148.19 102.74 148.28 102.97 148.36 103.2 148.44 103.43 148.51 103.66 148.57 103.88 148.63 104.11 148.68 104.34 148.72 104.57 148.77 104.79 148.8 105.02 148.84 105.25 148.87 105.48 148.9 105.7 148.92 105.93 148.94 106.16 148.96 106.39 148.98 106.61 149 106.84 149.01 107.07 149.02 107.3 149.03 107.52 149.04 107.75 149.05 107.98 149.06 108.21 149.06 108.43 149.07 108.66 149.07 108.89 149.08 109.12 149.08 109.34 149.08 109.57 149.09 109.8 149.09 110.03 149.09 110.25 149.09 110.48 149.09 110.71 149.09 110.94 149.09 111.16 149.1 111.39 149.1 111.62 149.1 111.85 149.09" class="geometry color_" stroke="#BECAB9"/>
          </g>
        </g>
      </g>
</g>
      <g class="guide ylabels" font-size="2.82" font-family="'PT Sans Caption','Helvetica Neue','Helvetica',sans-serif" fill="#6C606B" id="img-45ae1100-29">
        <text x="10.02" y="149.1" text-anchor="end" dy="0.35em">0.0</text>
        <text x="10.02" y="102.4" text-anchor="end" dy="0.35em">0.5</text>
        <text x="10.02" y="55.7" text-anchor="end" dy="0.35em">1.0</text>
        <text x="10.02" y="9" text-anchor="end" dy="0.35em">1.5</text>
      </g>
    </g>
  </g>
</g>
</g>
<defs>
  <clipPath id="img-45ae1100-15">
  <path d="M151.28,7 L 285.55 7 285.55 151.1 151.28 151.1" />
</clipPath>
  <clipPath id="img-45ae1100-8">
  <path d="M5,5 L 287.55 5 287.55 165.39 5 165.39" />
</clipPath>
  <clipPath id="img-45ae1100-22">
  <path d="M11.02,7 L 147.28 7 147.28 151.1 11.02 151.1" />
</clipPath>
</defs>
</svg>
