<?xml version="1.0" encoding="UTF-8"?>
<svg xmlns="http://www.w3.org/2000/svg"
     xmlns:xlink="http://www.w3.org/1999/xlink"
     xmlns:gadfly="http://www.gadflyjl.org/ns"
     version="1.2"
     width="100mm" height="180mm" viewBox="0 0 100 180"
     stroke="none"
     fill="#000000"
     stroke-width="0.3"
     font-size="3.88"
>
<g class="plotroot yscalable" id="img-2fe572cd-1">
  <g font-size="3.88" font-family="'PT Sans','Helvetica Neue','Helvetica',sans-serif" fill="#564A55" stroke="#000000" stroke-opacity="0.000" id="img-2fe572cd-2">
    <text x="53.81" y="168.39" text-anchor="middle" dy="0.6em">days <tspan style="dominant-baseline:inherit" font-style="italic"><tspan style="dominant-baseline:inherit" font-weight="bold">by</tspan></tspan> treatments</text>
  </g>
<g clip-path="url(#img-2fe572cd-3)">
  <g id="img-2fe572cd-4">
    <g class="plotpanel" id="img-2fe572cd-5">
      <g font-size="3.88" font-family="'PT Sans','Helvetica Neue','Helvetica',sans-serif" fill="#564A55" stroke="#000000" stroke-opacity="0.000" id="img-2fe572cd-6">
        <text x="81.88" y="158.78" text-anchor="middle" dy="0.6em">Quercetin</text>
      </g>
      <g font-size="3.88" font-family="'PT Sans','Helvetica Neue','Helvetica',sans-serif" fill="#564A55" stroke="#000000" stroke-opacity="0.000" id="img-2fe572cd-7">
        <text x="55.64" y="158.78" text-anchor="middle" dy="0.6em">T1130</text>
      </g>
      <g font-size="3.88" font-family="'PT Sans','Helvetica Neue','Helvetica',sans-serif" fill="#564A55" stroke="#000000" stroke-opacity="0.000" id="img-2fe572cd-8">
        <text x="28.4" y="158.78" text-anchor="middle" dy="0.6em">Blank</text>
      </g>
      <g class="guide xlabels" font-size="2.82" font-family="'PT Sans Caption','Helvetica Neue','Helvetica',sans-serif" fill="#6C606B" id="img-2fe572cd-9">
        <text x="73.54" y="153.1" text-anchor="end" dy="0.35em" transform="rotate(-90, 73.54, 153.1)">0</text>
        <text x="79.1" y="153.1" text-anchor="end" dy="0.35em" transform="rotate(-90, 79.1, 153.1)">1</text>
        <text x="84.66" y="153.1" text-anchor="end" dy="0.35em" transform="rotate(-90, 84.66, 153.1)">2</text>
        <text x="90.22" y="153.1" text-anchor="end" dy="0.35em" transform="rotate(-90, 90.22, 153.1)">4</text>
      </g>
      <g class="guide xlabels" font-size="2.82" font-family="'PT Sans Caption','Helvetica Neue','Helvetica',sans-serif" fill="#6C606B" id="img-2fe572cd-10">
        <text x="47.3" y="153.1" text-anchor="end" dy="0.35em" transform="rotate(-90, 47.3, 153.1)">0</text>
        <text x="52.86" y="153.1" text-anchor="end" dy="0.35em" transform="rotate(-90, 52.86, 153.1)">1</text>
        <text x="58.42" y="153.1" text-anchor="end" dy="0.35em" transform="rotate(-90, 58.42, 153.1)">2</text>
        <text x="63.98" y="153.1" text-anchor="end" dy="0.35em" transform="rotate(-90, 63.98, 153.1)">4</text>
      </g>
      <g class="guide xlabels" font-size="2.82" font-family="'PT Sans Caption','Helvetica Neue','Helvetica',sans-serif" fill="#6C606B" id="img-2fe572cd-11">
        <text x="19.31" y="153.1" text-anchor="end" dy="0.35em" transform="rotate(-90, 19.31, 153.1)">0</text>
        <text x="25.37" y="153.1" text-anchor="end" dy="0.35em" transform="rotate(-90, 25.37, 153.1)">1</text>
        <text x="31.43" y="153.1" text-anchor="end" dy="0.35em" transform="rotate(-90, 31.43, 153.1)">2</text>
        <text x="37.49" y="153.1" text-anchor="end" dy="0.35em" transform="rotate(-90, 37.49, 153.1)">4</text>
      </g>
<g clip-path="url(#img-2fe572cd-12)">
      <g id="img-2fe572cd-13">
        <g pointer-events="visible" opacity="1" fill="#000000" fill-opacity="0.000" stroke="#000000" stroke-opacity="0.000" class="guide background" id="img-2fe572cd-14">
          <rect x="70.76" y="7" width="22.24" height="145.1"/>
        </g>
        <g class="guide ygridlines xfixed" stroke-dasharray="0.5,0.5" stroke-width="0.2" stroke="#D0D0E0" id="img-2fe572cd-15">
          <path fill="none" d="M70.76,150.1 L 93 150.1"/>
          <path fill="none" d="M70.76,114.83 L 93 114.83"/>
          <path fill="none" d="M70.76,79.55 L 93 79.55"/>
          <path fill="none" d="M70.76,44.28 L 93 44.28"/>
          <path fill="none" d="M70.76,9 L 93 9"/>
        </g>
        <g class="guide xgridlines yfixed" stroke-dasharray="0.5,0.5" stroke-width="0.2" stroke="#D0D0E0" id="img-2fe572cd-16">
          <path fill="none" d="M76.32,7 L 76.32 152.1"/>
          <path fill="none" d="M81.88,7 L 81.88 152.1"/>
          <path fill="none" d="M87.44,7 L 87.44 152.1"/>
        </g>
        <g class="plotpanel" id="img-2fe572cd-17">
          <g class="geometry" stroke-width="0.3" id="img-2fe572cd-18">
            <g fill="#00BFFF" stroke="#FFFFFF" id="img-2fe572cd-19">
              <use xlink:href="#img-2fe572cd-20" x="73.54" y="83.08" fill="#00BFFF" stroke="#00BFFF"/>
            </g>
            <rect x="71.26" y="102.04" width="4.56" height="11.02" fill="#00BFFF" stroke="#00BFFF"/>
            <rect x="76.82" y="105.57" width="4.56" height="11.02" fill="#00BFFF" stroke="#00BFFF"/>
            <rect x="82.38" y="91.46" width="4.56" height="18.08" fill="#00BFFF" stroke="#00BFFF"/>
            <rect x="87.94" y="95.43" width="4.56" height="16.32" fill="#00BFFF" stroke="#00BFFF"/>
            <path fill="none" d="M72.02,90.13 L 75.06 90.13" stroke="#00BFFF"/>
            <path fill="none" d="M77.58,97.19 L 80.62 97.19" stroke="#00BFFF"/>
            <path fill="none" d="M83.14,88.37 L 86.18 88.37" stroke="#00BFFF"/>
            <path fill="none" d="M88.7,90.13 L 91.74 90.13" stroke="#00BFFF"/>
            <path fill="none" d="M72.02,118.36 L 75.06 118.36" stroke="#00BFFF"/>
            <path fill="none" d="M77.58,120.12 L 80.62 120.12" stroke="#00BFFF"/>
            <path fill="none" d="M83.14,109.54 L 86.18 109.54" stroke="#00BFFF"/>
            <path fill="none" d="M88.7,114.83 L 91.74 114.83" stroke="#00BFFF"/>
            <path fill="none" d="M73.54,102.04 L 73.54 90.13" stroke="#00BFFF"/>
            <path fill="none" d="M79.1,105.57 L 79.1 97.19" stroke="#00BFFF"/>
            <path fill="none" d="M84.66,91.46 L 84.66 88.37" stroke="#00BFFF"/>
            <path fill="none" d="M90.22,95.43 L 90.22 90.13" stroke="#00BFFF"/>
            <path fill="none" d="M73.54,113.06 L 73.54 118.36" stroke="#00BFFF"/>
            <path fill="none" d="M79.1,116.59 L 79.1 120.12" stroke="#00BFFF"/>
            <path fill="none" d="M84.66,109.54 L 84.66 109.54" stroke="#00BFFF"/>
            <path fill="none" d="M90.22,111.74 L 90.22 114.83" stroke="#00BFFF"/>
            <g stroke-width="0.6" id="img-2fe572cd-21">
              <path fill="none" d="M72.02,106.89 L 75.06 106.89" stroke="#B5FFFF"/>
              <path fill="none" d="M77.58,112.18 L 80.62 112.18" stroke="#B5FFFF"/>
              <path fill="none" d="M83.14,105.13 L 86.18 105.13" stroke="#B5FFFF"/>
              <path fill="none" d="M88.7,106.01 L 91.74 106.01" stroke="#B5FFFF"/>
            </g>
          </g>
        </g>
      </g>
</g>
<g clip-path="url(#img-2fe572cd-22)">
      <g id="img-2fe572cd-23">
        <g pointer-events="visible" opacity="1" fill="#000000" fill-opacity="0.000" stroke="#000000" stroke-opacity="0.000" class="guide background" id="img-2fe572cd-24">
          <rect x="44.52" y="7" width="22.24" height="145.1"/>
        </g>
        <g class="guide ygridlines xfixed" stroke-dasharray="0.5,0.5" stroke-width="0.2" stroke="#D0D0E0" id="img-2fe572cd-25">
          <path fill="none" d="M44.52,150.1 L 66.76 150.1"/>
          <path fill="none" d="M44.52,114.83 L 66.76 114.83"/>
          <path fill="none" d="M44.52,79.55 L 66.76 79.55"/>
          <path fill="none" d="M44.52,44.28 L 66.76 44.28"/>
          <path fill="none" d="M44.52,9 L 66.76 9"/>
        </g>
        <g class="guide xgridlines yfixed" stroke-dasharray="0.5,0.5" stroke-width="0.2" stroke="#D0D0E0" id="img-2fe572cd-26">
          <path fill="none" d="M50.08,7 L 50.08 152.1"/>
          <path fill="none" d="M55.64,7 L 55.64 152.1"/>
          <path fill="none" d="M61.2,7 L 61.2 152.1"/>
        </g>
        <g class="plotpanel" id="img-2fe572cd-27">
          <g class="geometry" stroke-width="0.3" id="img-2fe572cd-28">
            <rect x="45.02" y="103.8" width="4.56" height="9.7" fill="#00BFFF" stroke="#00BFFF"/>
            <rect x="50.58" y="105.13" width="4.56" height="13.67" fill="#00BFFF" stroke="#00BFFF"/>
            <rect x="56.14" y="102.04" width="4.56" height="11.46" fill="#00BFFF" stroke="#00BFFF"/>
            <rect x="61.7" y="100.28" width="4.56" height="14.55" fill="#00BFFF" stroke="#00BFFF"/>
            <path fill="none" d="M45.78,98.95 L 48.82 98.95" stroke="#00BFFF"/>
            <path fill="none" d="M51.34,98.95 L 54.38 98.95" stroke="#00BFFF"/>
            <path fill="none" d="M56.9,97.19 L 59.94 97.19" stroke="#00BFFF"/>
            <path fill="none" d="M62.46,90.13 L 65.5 90.13" stroke="#00BFFF"/>
            <path fill="none" d="M45.78,118.36 L 48.82 118.36" stroke="#00BFFF"/>
            <path fill="none" d="M51.34,123.65 L 54.38 123.65" stroke="#00BFFF"/>
            <path fill="none" d="M56.9,120.12 L 59.94 120.12" stroke="#00BFFF"/>
            <path fill="none" d="M62.46,118.36 L 65.5 118.36" stroke="#00BFFF"/>
            <path fill="none" d="M47.3,103.8 L 47.3 98.95" stroke="#00BFFF"/>
            <path fill="none" d="M52.86,105.13 L 52.86 98.95" stroke="#00BFFF"/>
            <path fill="none" d="M58.42,102.04 L 58.42 97.19" stroke="#00BFFF"/>
            <path fill="none" d="M63.98,100.28 L 63.98 90.13" stroke="#00BFFF"/>
            <path fill="none" d="M47.3,113.5 L 47.3 118.36" stroke="#00BFFF"/>
            <path fill="none" d="M52.86,118.8 L 52.86 123.65" stroke="#00BFFF"/>
            <path fill="none" d="M58.42,113.5 L 58.42 120.12" stroke="#00BFFF"/>
            <path fill="none" d="M63.98,114.83 L 63.98 118.36" stroke="#00BFFF"/>
            <g stroke-width="0.6" id="img-2fe572cd-29">
              <path fill="none" d="M45.78,108.65 L 48.82 108.65" stroke="#B5FFFF"/>
              <path fill="none" d="M51.34,109.54 L 54.38 109.54" stroke="#B5FFFF"/>
              <path fill="none" d="M56.9,111.3 L 59.94 111.3" stroke="#B5FFFF"/>
              <path fill="none" d="M62.46,107.77 L 65.5 107.77" stroke="#B5FFFF"/>
            </g>
          </g>
        </g>
      </g>
</g>
<g clip-path="url(#img-2fe572cd-30)">
      <g id="img-2fe572cd-31">
        <g pointer-events="visible" opacity="1" fill="#000000" fill-opacity="0.000" stroke="#000000" stroke-opacity="0.000" class="guide background" id="img-2fe572cd-32">
          <rect x="16.28" y="7" width="24.24" height="145.1"/>
        </g>
        <g class="guide ygridlines xfixed" stroke-dasharray="0.5,0.5" stroke-width="0.2" stroke="#D0D0E0" id="img-2fe572cd-33">
          <path fill="none" d="M16.28,150.1 L 40.52 150.1"/>
          <path fill="none" d="M16.28,114.83 L 40.52 114.83"/>
          <path fill="none" d="M16.28,79.55 L 40.52 79.55"/>
          <path fill="none" d="M16.28,44.28 L 40.52 44.28"/>
          <path fill="none" d="M16.28,9 L 40.52 9"/>
        </g>
        <g class="guide xgridlines yfixed" stroke-dasharray="0.5,0.5" stroke-width="0.2" stroke="#D0D0E0" id="img-2fe572cd-34">
          <path fill="none" d="M22.34,7 L 22.34 152.1"/>
          <path fill="none" d="M28.4,7 L 28.4 152.1"/>
          <path fill="none" d="M34.46,7 L 34.46 152.1"/>
        </g>
        <g class="plotpanel" id="img-2fe572cd-35">
          <g class="geometry" stroke-width="0.3" id="img-2fe572cd-36">
            <use xlink:href="#img-2fe572cd-37" x="19.31" y="44.28" fill="#00BFFF" stroke="#FFFFFF"/>
            <use xlink:href="#img-2fe572cd-37" x="19.31" y="44.28" fill="#00BFFF" stroke="#FFFFFF"/>
            <use xlink:href="#img-2fe572cd-37" x="19.31" y="44.28" fill="#00BFFF" stroke="#FFFFFF"/>
            <use xlink:href="#img-2fe572cd-37" x="19.31" y="31.93" fill="#00BFFF" stroke="#FFFFFF"/>
            <use xlink:href="#img-2fe572cd-37" x="19.31" y="26.64" fill="#00BFFF" stroke="#FFFFFF"/>
            <use xlink:href="#img-2fe572cd-37" x="31.43" y="100.72" fill="#00BFFF" stroke="#FFFFFF"/>
            <use xlink:href="#img-2fe572cd-37" x="31.43" y="100.72" fill="#00BFFF" stroke="#FFFFFF"/>
            <use xlink:href="#img-2fe572cd-37" x="31.43" y="98.95" fill="#00BFFF" stroke="#FFFFFF"/>
            <use xlink:href="#img-2fe572cd-37" x="31.43" y="54.86" fill="#00BFFF" stroke="#FFFFFF"/>
            <use xlink:href="#img-2fe572cd-37" x="31.43" y="49.57" fill="#00BFFF" stroke="#FFFFFF"/>
            <use xlink:href="#img-2fe572cd-37" x="31.43" y="46.04" fill="#00BFFF" stroke="#FFFFFF"/>
            <rect x="16.78" y="79.55" width="5.06" height="21.17" fill="#00BFFF" stroke="#00BFFF"/>
            <rect x="22.84" y="74.26" width="5.06" height="16.32" fill="#00BFFF" stroke="#00BFFF"/>
            <rect x="28.9" y="72.94" width="5.06" height="10.14" fill="#00BFFF" stroke="#00BFFF"/>
            <rect x="34.96" y="70.29" width="5.06" height="18.52" fill="#00BFFF" stroke="#00BFFF"/>
            <path fill="none" d="M17.63,49.57 L 21 49.57" stroke="#00BFFF"/>
            <path fill="none" d="M23.69,61.91 L 27.06 61.91" stroke="#00BFFF"/>
            <path fill="none" d="M29.75,60.15 L 33.12 60.15" stroke="#00BFFF"/>
            <path fill="none" d="M35.81,56.62 L 39.18 56.62" stroke="#00BFFF"/>
            <path fill="none" d="M17.63,118.36 L 21 118.36" stroke="#00BFFF"/>
            <path fill="none" d="M23.69,104.24 L 27.06 104.24" stroke="#00BFFF"/>
            <path fill="none" d="M29.75,97.19 L 33.12 97.19" stroke="#00BFFF"/>
            <path fill="none" d="M35.81,97.19 L 39.18 97.19" stroke="#00BFFF"/>
            <path fill="none" d="M19.31,79.55 L 19.31 49.57" stroke="#00BFFF"/>
            <path fill="none" d="M25.37,74.26 L 25.37 61.91" stroke="#00BFFF"/>
            <path fill="none" d="M31.43,72.94 L 31.43 60.15" stroke="#00BFFF"/>
            <path fill="none" d="M37.49,70.29 L 37.49 56.62" stroke="#00BFFF"/>
            <path fill="none" d="M19.31,100.72 L 19.31 118.36" stroke="#00BFFF"/>
            <path fill="none" d="M25.37,90.58 L 25.37 104.24" stroke="#00BFFF"/>
            <path fill="none" d="M31.43,83.08 L 31.43 97.19" stroke="#00BFFF"/>
            <path fill="none" d="M37.49,88.81 L 37.49 97.19" stroke="#00BFFF"/>
            <g stroke-width="0.6" id="img-2fe572cd-38">
              <path fill="none" d="M17.63,90.13 L 21 90.13" stroke="#B5FFFF"/>
              <path fill="none" d="M23.69,86.61 L 27.06 86.61" stroke="#B5FFFF"/>
              <path fill="none" d="M29.75,79.55 L 33.12 79.55" stroke="#B5FFFF"/>
              <path fill="none" d="M35.81,81.32 L 39.18 81.32" stroke="#B5FFFF"/>
            </g>
          </g>
        </g>
      </g>
</g>
      <g class="guide ylabels" font-size="2.82" font-family="'PT Sans Caption','Helvetica Neue','Helvetica',sans-serif" fill="#6C606B" id="img-2fe572cd-39">
        <text x="15.28" y="150.1" text-anchor="end" dy="0.35em">0</text>
        <text x="15.28" y="114.83" text-anchor="end" dy="0.35em">2</text>
        <text x="15.28" y="79.55" text-anchor="end" dy="0.35em">4</text>
        <text x="15.28" y="44.28" text-anchor="end" dy="0.35em">6</text>
        <text x="15.28" y="9" text-anchor="end" dy="0.35em">8</text>
      </g>
    </g>
  </g>
</g>
  <g font-size="3.88" font-family="'PT Sans','Helvetica Neue','Helvetica',sans-serif" fill="#564A55" stroke="#000000" stroke-opacity="0.000" id="img-2fe572cd-40">
    <text x="8.81" y="83.19" text-anchor="middle" dy="0.35em" transform="rotate(-90, 8.81, 85.19)">glossy</text>
  </g>
</g>
<defs>
  <clipPath id="img-2fe572cd-3">
  <path d="M12.61,5 L 95 5 95 165.39 12.61 165.39" />
</clipPath>
  <clipPath id="img-2fe572cd-12">
  <path d="M70.76,7 L 93 7 93 152.1 70.76 152.1" />
</clipPath>
  <clipPath id="img-2fe572cd-30">
  <path d="M16.28,7 L 40.52 7 40.52 152.1 16.28 152.1" />
</clipPath>
  <clipPath id="img-2fe572cd-22">
  <path d="M44.52,7 L 66.76 7 66.76 152.1 44.52 152.1" />
</clipPath>
  <g id="img-2fe572cd-20">
    <circle cx="0" cy="0" r="0.9"/>
  </g>
  <g id="img-2fe572cd-37">
    <circle cx="0" cy="0" r="0.9"/>
  </g>
</defs>
</svg>
